<svg xmlns="http://www.w3.org/2000/svg" width="831" height="293" fill="none"><g clip-path="url(#a)"><path fill="#F2F2F2" fill-rule="evenodd" d="M362.696 227.687c-14.376-10.081-32.451-14.321-51.708-15.397 1.177-5.169 2.702-11.574 4.012-16.29 2-7.2 9.167-11 12.5-12-1.833-.5-6.9-.3-12.5 4.5s-11.333 14.667-13.5 19l5-49.5-12 49.5V166l-4 39-17-57.5 11 52.5a4001.846 4001.846 0 0 1-16.412-15.313A21.322 21.322 0 0 0 266 182.5c-3.559-3.184-1.774-1.449 2.088 2.187 5.47 6.522 10.85 18.89 14.209 27.972-15.877 1.098-31.724 3.39-46.244 5.498-21.278 3.089-72.065 17.899-121.649 32.359h-.001c-27.715 8.082-55.053 16.054-76.652 21.809-23.887 6.364-56.787 17.554-23.887 17.554 5.142 0 28.385.172 63.977.434h.003c192.177 1.418 744.327 5.491 750.411-.434 7.211-7.022 3.077-11.659-47.773-17.554-36.454-4.226-63.987-11.632-85.963-19.738 1.517-2.877 3.464-6.482 5.003-9.093 2.308-3.914 7.114-5.018 9.229-5.08-.998-.582-4.005-1.262-8.049.675-4.043 1.938-8.963 6.83-10.917 9.034l10.725-28.282-14.836 27.18 6.53-24.37-8.485 22.273-.936-36.441-1.801 32.56a2431.407 2431.407 0 0 1-7.228-11.575 12.99 12.99 0 0 0-.882-1.612c-1.589-2.43-.814-1.13.882 1.612 1.901 4.079 3.066 10.744 3.695 16.267-10.731-4.653-20.01-9.31-28.429-13.535-25.887-12.993-43.636-21.901-70.445-14.043-100.954 29.592-188.387 30.093-215.879 9.53Z" clip-rule="evenodd"/><path fill="#E1E1E1" d="m310.988 212.29-.244-.056-.065.289.295.016.014-.249Zm51.708 15.397.15-.201-.007-.004-.143.205ZM315 196l-.241-.067.241.067Zm12.5-12 .072.239.836-.25-.842-.23-.066.241Zm-26 23.5-.249-.025.473.137-.224-.112Zm5-49.5.249.025-.492-.084.243.059Zm-12 49.5h-.25l.493.059-.243-.059Zm0-41.5h.25l-.499-.026.249.026Zm-4 39-.24.071.489-.045-.249-.026Zm-17-57.5.24-.071-.485.122.245-.051Zm11 52.5-.17.183.576.535-.161-.769-.245.051ZM266 182.5l-.167.186.167-.186Zm16.297 30.159.017.249.333-.023-.116-.313-.234.087Zm-46.244 5.498.036.248-.036-.248Zm-121.649 32.359-.07-.24h-.002l.072.24Zm-.001 0 .07.24h.001l-.071-.24Zm-76.652 21.809.064.241-.064-.241Zm40.09 17.988-.002.25h.002v-.25Zm.003 0 .001-.25h-.001v.25Zm750.411-.434.174.179-.174-.179Zm-47.773-17.554.029-.248-.029.248Zm-85.963-19.738-.221-.117-.133.253.268.099.086-.235Zm5.003-9.093-.215-.127.215.127Zm9.229-5.08.007.249.873-.025-.754-.44-.126.216Zm-8.049.675-.108-.225.108.225Zm-10.917 9.034-.234-.089.421.254-.187-.165Zm10.725-28.282.234.089-.453-.209.219.12Zm-14.836 27.18-.241-.065.461.185-.22-.12Zm6.53-24.37.242.064-.475-.153.233.089Zm-8.485 22.273-.25.006.483.083-.233-.089Zm-.936-36.441.25-.007-.499-.007.249.014Zm-1.801 32.56-.212.133.418.666.044-.785-.25-.014Zm-8.11-13.187.209-.137-.209.137Zm4.577 17.879-.099.229.396.172-.049-.429-.248.028ZM649.02 232.2l.112-.224-.112.224Zm-70.445-14.043-.071-.24.071.24Zm-267.601-5.618c19.233 1.075 37.256 5.309 51.578 15.352l.287-.409c-14.429-10.118-32.557-14.364-51.837-15.442l-.028.499Zm3.785-16.606c-1.312 4.723-2.837 11.132-4.015 16.301l.488.111c1.177-5.168 2.7-11.568 4.009-16.278l-.482-.134Zm12.669-12.172c-1.696.508-4.35 1.723-6.835 3.719-2.485 1.997-4.816 4.788-5.834 8.453l.482.134c.982-3.535 3.235-6.244 5.666-8.197 2.432-1.954 5.028-3.139 6.665-3.631l-.144-.478Zm-12.265 4.929c5.549-4.756 10.532-4.923 12.271-4.449l.132-.482c-1.928-.526-7.078-.293-12.729 4.551l.326.38Zm-13.439 18.922c1.079-2.158 3.048-5.699 5.447-9.298 2.4-3.603 5.218-7.247 7.992-9.624l-.326-.38c-2.826 2.423-5.675 6.112-8.083 9.726-2.41 3.618-4.39 7.177-5.478 9.352l.448.224Zm4.527-49.637-5 49.5.498.05 5-49.5-.498-.05Zm-11.508 49.584 12-49.5-.486-.118-12 49.5.486.118ZM294.25 166v41.5h.5V166h-.5Zm-3.501 39.026 4-39-.498-.052-4 39 .498.052Zm-17.489-57.455 17 57.5.48-.142-17-57.5-.48.142Zm11.485 52.378-11-52.5-.49.102 11 52.5.49-.102Zm-16.828-15.08a3933.627 3933.627 0 0 0 16.413 15.314l.34-.366a3930.927 3930.927 0 0 1-16.411-15.313l-.342.365Zm-2.084-2.183a21.046 21.046 0 0 1 2.064 2.161l.383-.321a21.591 21.591 0 0 0-2.113-2.212l-.334.372Zm2.426 1.818c-1.932-1.819-3.34-3.158-3.82-3.644a4.995 4.995 0 0 1-.152-.161c-.002-.001.003.004.009.014a.244.244 0 0 1-.026.28.244.244 0 0 1-.122.08c-.067.019-.121.004-.132.001-.019-.005-.033-.012-.038-.014l-.013-.007.014.011c.028.021.075.058.142.115.269.225.822.711 1.712 1.507l.334-.372a89.787 89.787 0 0 0-1.725-1.519c-.069-.057-.123-.102-.163-.131a.547.547 0 0 0-.061-.042c-.007-.004-.034-.02-.07-.03a.253.253 0 0 0-.318.209c-.008.064.011.113.015.125a.319.319 0 0 0 .047.079c.013.018.03.037.046.055.035.038.084.089.145.151.488.495 1.904 1.841 3.834 3.658l.342-.365Zm14.272 28.068c-3.358-9.08-8.75-21.487-14.251-28.046l-.383.321c5.439 6.485 10.806 18.815 14.165 27.899l.469-.174Zm-46.442 5.833c14.522-2.108 30.359-4.399 46.225-5.497l-.034-.498c-15.888 1.099-31.744 3.392-46.263 5.5l.072.495Zm-121.615 32.351c49.596-14.463 100.36-29.266 121.615-32.351l-.072-.495c-21.3 3.092-72.112 17.91-121.683 32.366l.14.48Zm0 0 .001-.001-.143-.479h-.001l.143.48Zm-76.659 21.81c21.603-5.755 48.944-13.728 76.658-21.81l-.14-.48c-27.716 8.082-55.051 16.054-76.647 21.807l.13.483Zm-23.95 17.063c-4.108 0-7.179-.175-9.364-.49-1.093-.158-1.958-.351-2.617-.572-.663-.222-1.098-.466-1.35-.714-.244-.238-.315-.474-.273-.722.046-.267.229-.586.585-.954.71-.736 2.009-1.569 3.78-2.465 7.071-3.58 21.244-7.963 33.19-11.146l-.13-.483c-11.94 3.182-26.161 7.576-33.286 11.182-1.779.901-3.142 1.765-3.914 2.564-.385.399-.648.807-.718 1.219-.073.431.073.826.415 1.162.331.325.849.599 1.542.832.698.233 1.595.431 2.704.591 2.22.321 5.318.496 9.435.496v-.5Zm63.977.434c-35.59-.262-58.835-.434-63.978-.434v.5c5.14 0 28.383.172 63.975.434l.003-.5Zm.002 0h-.003v.5h.003v-.5Zm750.236-.363a.564.564 0 0 1-.16.084c-.099.039-.233.08-.406.123-.346.085-.824.168-1.435.251-1.221.165-2.949.321-5.16.469-4.42.295-10.753.554-18.78.78-16.053.453-38.869.774-66.68.989-55.621.429-131.214.431-212.624.204-162.82-.455-348.901-1.828-444.99-2.537l-.003.5c96.088.709 282.171 2.082 444.991 2.537 81.411.227 157.006.225 212.63-.204 27.812-.215 50.632-.536 66.69-.989 8.029-.227 14.369-.486 18.8-.782 2.214-.147 3.955-.304 5.193-.471a15.327 15.327 0 0 0 1.486-.261 3.79 3.79 0 0 0 .473-.144.986.986 0 0 0 .324-.191l-.349-.358Zm-47.627-17.127c25.434 2.949 39.141 5.579 45.59 8.336 3.239 1.385 4.54 2.758 4.692 4.122.076.685-.131 1.411-.592 2.193-.462.783-1.168 1.605-2.063 2.476l.349.358c.909-.884 1.65-1.743 2.144-2.58.495-.839.751-1.674.659-2.503-.185-1.664-1.744-3.136-4.993-4.525-6.528-2.791-20.312-5.427-45.728-8.373l-.058.496Zm-86.02-19.751c21.994 8.113 49.547 15.523 86.02 19.751l.058-.496c-36.434-4.224-63.948-11.625-85.905-19.724l-.173.469Zm4.874-9.455c-1.543 2.616-3.491 6.226-5.009 9.103l.442.234c1.517-2.877 3.461-6.477 4.998-9.083l-.431-.254Zm9.437-5.203c-1.089.032-2.851.33-4.636 1.117-1.787.787-3.613 2.071-4.801 4.086l.431.254c1.119-1.899 2.849-3.124 4.572-3.883 1.723-.759 3.422-1.044 4.448-1.075l-.014-.499Zm-7.934 1.151c3.984-1.909 6.901-1.218 7.815-.685l.252-.432c-1.082-.632-4.178-1.301-8.283.666l.216.451Zm-10.838 8.973c.971-1.094 2.682-2.861 4.653-4.594 1.975-1.736 4.195-3.425 6.185-4.379l-.216-.451c-2.053.984-4.314 2.709-6.299 4.454-1.988 1.748-3.714 3.53-4.697 4.639l.374.331Zm10.304-28.536-10.725 28.282.468.177 10.725-28.281-.468-.178Zm-14.382 27.389 14.835-27.18-.438-.24-14.836 27.18.439.24Zm6.069-24.555-6.53 24.37.483.13 6.53-24.371-.483-.129Zm-8.011 22.427 8.486-22.273-.467-.178-8.486 22.273.467.178Zm-1.419-36.524.936 36.441.5-.013-.936-36.441-.5.013Zm-1.301 32.568 1.801-32.561-.499-.027-1.802 32.561.5.027Zm-7.691-11.457a2463.69 2463.69 0 0 0 7.229 11.576l.424-.266c-2.189-3.486-5.302-8.46-7.227-11.573l-.426.263Zm-.878-1.607c.302.462.59.992.864 1.581l.454-.211a13.198 13.198 0 0 0-.9-1.644l-.418.274Zm1.304 1.344a140.624 140.624 0 0 1-1.669-2.738l-.053-.097-.006-.011.008.021c.001.006.005.02.007.038.001.012.007.062-.018.12a.248.248 0 0 1-.354.121c-.018-.011-.03-.021-.035-.025a.17.17 0 0 1-.012-.011c-.007-.007-.008-.009-.001 0 .011.014.032.042.062.085.122.174.369.544.767 1.153l.418-.274a53.894 53.894 0 0 0-.776-1.166 2.499 2.499 0 0 0-.115-.15c-.004-.004-.025-.026-.056-.044-.012-.007-.061-.036-.132-.035a.252.252 0 0 0-.245.279c.002.02.006.035.008.043a.386.386 0 0 0 .036.085c.015.029.036.069.063.115.21.369.83 1.384 1.677 2.754l.426-.263Zm3.73 16.37c-.628-5.524-1.797-12.225-3.716-16.344l-.454.211c1.882 4.039 3.045 10.666 3.674 16.189l.496-.056Zm-28.789-13.284c8.418 4.225 17.703 8.885 28.442 13.541l.198-.458c-10.724-4.65-19.997-9.304-28.416-13.53l-.224.447Zm-70.263-14.026c26.704-7.828 44.369 1.03 70.263 14.026l.224-.447c-25.88-12.989-43.713-21.948-70.628-14.059l.141.48Zm-216.099 9.49c6.919 5.175 17.583 9.008 31.239 11.394 13.662 2.386 30.341 3.326 49.31 2.699 37.938-1.255 85.056-8.782 135.55-23.583l-.141-.48c-50.46 14.791-97.535 22.31-135.425 23.563-18.946.627-35.589-.313-49.208-2.692-13.624-2.38-24.198-6.195-31.026-11.302l-.299.401Z"/><path fill="#6FCF97" fill-rule="evenodd" d="M179.964 59v6.843a12.292 12.292 0 0 1 4.362 9.405v28.406l5.701 3.292-5.701 3.291v44.411l15.767-9.103V130.47l-5.35-3.089 5.35-3.088v-5.687c0-6.803 5.514-12.317 12.317-12.317.809 0 1.599.077 2.364.226l6.061-3.499v6.604a12.284 12.284 0 0 1 3.893 8.986v5.213l6.171 3.562-6.171 3.563v21.167c0 .355-.015.707-.044 1.055a12.309 12.309 0 0 1-6.151 10.179l-11.846 6.839v7.023l-6.082-3.511-16.279 9.399v65.587c0 6.803-5.515 12.318-12.318 12.318s-12.318-5.515-12.318-12.318v-38.607l-33.167-19.149c-4.267-1.935-7.235-6.233-7.235-11.223v-18.824l-6.288-3.63 6.288-3.63v-35.013c0-2.428.703-4.693 1.916-6.601l-1.725-6.441 6.949 1.862a12.273 12.273 0 0 1 5.178-1.137c6.803 0 12.318 5.514 12.318 12.317v22.139l6.804 3.928-6.804 3.929v23.924l15.766 9.103v-51.108l-5.437-3.14 5.437-3.139V82.17l-5.437-3.139 5.437-3.139v-.644c0-6.803 5.515-12.318 12.318-12.318.36 0 .717.015 1.069.046L179.964 59ZM570.013 158.348a5.348 5.348 0 0 0-10.697 0v1.78l-3.671 2.119 3.671 2.12v12.94l-2.746 1.585 2.746 1.586v12.345l-6.845-3.952v-11.697a5.348 5.348 0 0 0-10.697 0v2.891L539 181.667l2.774 1.601v8.453c0 .155.007.308.02.459a5.342 5.342 0 0 0 2.67 4.419l2.487 1.436v3.695l3.2-1.848 9.165 5.292v28.478a5.349 5.349 0 0 0 10.697 0v-16.763l14.401-8.314a5.35 5.35 0 0 0 3.141-4.874v-14.172l2.929-1.69-2.929-1.691v-8.974a5.347 5.347 0 0 0-2.704-4.65l-.746-2.784-2.089 2.089a5.348 5.348 0 0 0-5.157 5.345v23.411l-6.846 3.953v-10.851l3.202-1.848-3.202-1.849v-21.27l3.202-1.849-3.202-1.849v-6.674Z" clip-rule="evenodd"/><ellipse cx="444.776" cy="100.491" fill="#000" rx="16.364" ry="20.761" transform="rotate(-30 444.776 100.491)"/><ellipse cx="446.081" cy="100.08" fill="#000" fill-opacity=".58" rx="18.021" ry="20.865" transform="rotate(-30 446.081 100.08)"/><ellipse cx="442.4" cy="101.862" fill="#6FCF97" rx="14.687" ry="15.958" transform="rotate(-30 442.4 101.862)"/><ellipse cx="388.338" cy="133.127" fill="#D9D9D9" rx="14.687" ry="15.958" transform="rotate(-30 388.338 133.127)"/><path fill="#6FCF97" d="m380.9 119.102 52.852-30.514 15.877 27.5-52.852 30.514z"/><rect width="52.643" height="8.183" x="393.043" y="115.069" fill="#A1EFC2" rx="4.092" transform="rotate(-30 393.043 115.069)"/><ellipse cx="383.723" cy="136.359" fill="#676767" rx="15.367" ry="18.079" transform="rotate(-30 383.723 136.359)"/><ellipse cx="382.772" cy="136.66" fill="#000" rx="14.146" ry="17.946" transform="rotate(-30 382.772 136.66)"/><ellipse cx="379.032" cy="138.899" fill="#6FCF97" rx="12.364" ry="13.434" transform="rotate(-30 379.032 138.899)"/><ellipse cx="351.847" cy="154.532" fill="#6FCF97" rx="12.364" ry="13.434" transform="rotate(-30 351.847 154.532)"/><rect width="6.256" height="44.315" fill="#58BA81" rx="3.128" transform="matrix(-1 0 0 1 375.477 153.26)"/><rect width="3.876" height="44.315" fill="#58BA81" rx="1.938" transform="matrix(-1 0 0 1 374.063 198.339)"/><rect width="8.863" height="6.883" fill="#000" rx="3.442" transform="matrix(-1 0 0 1 376.438 193.102)"/><rect width="8.863" height="4.692" fill="#000" rx="2" transform="matrix(-1 0 0 1 376.503 238.326)"/><rect width="7.935" height="56.203" fill="#6FCF97" rx="3.967" transform="scale(-1 1) rotate(-15 414.52 1497.423)"/><rect width="4.916" height="56.203" fill="#6FCF97" rx="2.458" transform="scale(-1 1) rotate(-15 630.757 1462.024)"/><rect width="11.241" height="8.73" fill="#000" rx="4" transform="scale(-1 1) rotate(-15 607.038 1476.782)"/><rect width="11.241" height="5.951" fill="#000" rx="2" transform="matrix(-1 0 0 1 345.005 262.049)"/><path fill="#6FCF97" d="m344.379 143.527 27.372-15.803 13.366 23.151-27.371 15.803z"/><rect width="31.606" height="6.085" x="346.05" y="146.421" fill="#A1EFC2" rx="3.043" transform="rotate(-30 346.05 146.421)"/><ellipse cx="346.348" cy="158.753" fill="#676767" rx="15.367" ry="18.079" transform="rotate(-30 346.348 158.753)"/><ellipse cx="345.397" cy="159.054" fill="#000" rx="14.146" ry="17.946" transform="rotate(-30 345.397 159.054)"/><rect width="7.816" height="55.365" x="369.594" y="151.765" fill="#6FCF97" rx="3.908" transform="rotate(-15 369.594 151.765)"/><rect width="4.842" height="55.365" x="385.878" y="205.709" fill="#6FCF97" rx="2.421" transform="rotate(-15 385.878 205.709)"/><rect width="11.073" height="8.6" x="381.319" y="200.156" fill="#000" rx="4" transform="rotate(-15 381.319 200.156)"/><rect width="11.073" height="5.862" x="397.603" y="253.958" fill="#000" rx="2"/><path fill="#BB6BD9" d="M280.161 38s1.234 6.908 3.463 10.686c1.988 3.37 6.673 7.475 6.673 7.475s-4.685 4.106-6.673 7.476c-2.229 3.778-3.463 10.686-3.463 10.686s-1.233-6.908-3.462-10.686c-1.988-3.37-6.673-7.476-6.673-7.476s4.685-4.105 6.673-7.475C278.928 44.908 280.161 38 280.161 38ZM307.657 28s.655 3.673 1.841 5.682c1.057 1.792 3.548 3.975 3.548 3.975s-2.491 2.182-3.548 3.974c-1.186 2.01-1.841 5.682-1.841 5.682s-.656-3.673-1.841-5.682c-1.058-1.792-3.548-3.974-3.548-3.974s2.49-2.183 3.548-3.975c1.185-2.009 1.841-5.682 1.841-5.682Z"/><path fill="#BB6BD9" fill-rule="evenodd" d="M527.027 51.682c-.309-.325-.65-.711-1.027-1.172-3.182-3.889-3.5-21.096-3.5-22.51 0-.796 1.187-3.31 2.54-6.175 1.05-2.225 2.201-4.661 2.973-6.67.948-2.463 5.143-4.722 9.54-6.779A36.848 36.848 0 0 1 561 0c10.074 0 19.209 4.027 25.881 10.558a391.226 391.226 0 0 1 4.045 3.01l.574.432c1.6 1.2 2.004 3.334 1.99 5.283a36.74 36.74 0 0 1 3.572 9.403c.906.981 1.791 1.95 2.438 2.814.954 1.272-.229 5.41-1.742 9.751-1.15 10.055-6.331 18.885-13.886 24.835-1.727 2.768-3.558 5.309-4.872 5.637-1.055.264-3.056.183-5.334.052A36.927 36.927 0 0 1 561 74c-15.218 0-28.29-9.187-33.973-22.318Z" clip-rule="evenodd"/><ellipse cx="576" cy="19.427" fill="#EFDEFF" rx="7.81" ry="13.061" transform="rotate(-49.422 576 19.427)"/><ellipse cx="574.713" cy="38.954" fill="#EFDEFF" rx="4.357" ry="6.954" transform="rotate(-49.422 574.713 38.954)"/></g><defs><clipPath id="a"><path fill="#fff" d="M0 0h831v293H0z"/></clipPath></defs></svg>